<?xml version="1.0" encoding="UTF-8"?>
<svg id="Layer_1" data-name="Layer 1" xmlns="http://www.w3.org/2000/svg" xmlns:xlink="http://www.w3.org/1999/xlink" viewBox="0 0 1700.38 1175.65">
  <defs>
    <style>
      .cls-1 {
        fill: url(#linear-gradient);
      }

      .cls-2 {
        fill: #0085d9;
      }

      .cls-3 {
        fill: #f4eff0;
      }

      .cls-4 {
        fill: #73995b;
      }

      .cls-5 {
        fill: #b73e3e;
      }

      .cls-6 {
        fill: #9da8ba;
      }

      .cls-7 {
        fill: #b55718;
      }

      .cls-8 {
        fill: #bac4d3;
      }

      .cls-9 {
        fill: #af4b19;
      }

      .cls-10 {
        fill: #ce4a4a;
      }

      .cls-11 {
        fill: #d36d29;
      }

      .cls-12 {
        fill: #d3dff4;
      }

      .cls-13 {
        fill: #c6b9bb;
      }

      .cls-14 {
        fill: #e2a63b;
      }

      .cls-15 {
        fill: #d6c9cb;
      }

      .cls-16 {
        fill: #a33319;
      }

      .cls-17 {
        fill: #6e3c7a;
      }

      .cls-18 {
        fill: #5b774b;
      }

      .cls-19 {
        fill: url(#linear-gradient-3);
      }

      .cls-20 {
        fill: url(#linear-gradient-4);
      }

      .cls-21 {
        fill: url(#linear-gradient-2);
      }

      .cls-22 {
        fill: url(#linear-gradient-5);
      }
    </style>
    <linearGradient id="linear-gradient" x1="632.16" y1="126.03" x2="699.07" y2="195.21" gradientTransform="translate(-44.95 326.19) rotate(-14.79)" gradientUnits="userSpaceOnUse">
      <stop offset="0" stop-color="#f26b72"/>
      <stop offset="1" stop-color="#e23737"/>
    </linearGradient>
    <linearGradient id="linear-gradient-2" x1="78.35" y1="242.93" x2="114.22" y2="280.03" gradientTransform="translate(-58.34 442.29) rotate(-24.92)" gradientUnits="userSpaceOnUse">
      <stop offset="0" stop-color="#eba7aa"/>
      <stop offset="1" stop-color="#db7070"/>
    </linearGradient>
    <linearGradient id="linear-gradient-3" x1="83.31" y1="309.23" x2="142.7" y2="370.64" gradientTransform="translate(93.83 -33) rotate(-11.96)" xlink:href="#linear-gradient-2"/>
    <linearGradient id="linear-gradient-4" x1="1388.2" y1="570.51" x2="1424.07" y2="607.6" gradientTransform="translate(140.81 -652.45) rotate(8.62)" xlink:href="#linear-gradient-2"/>
    <linearGradient id="linear-gradient-5" x1="1269.14" y1="868.99" x2="1335.33" y2="937.44" gradientTransform="translate(374.63 -799.36) rotate(15.26)" xlink:href="#linear-gradient"/>
  </defs>
  <ellipse class="cls-13" cx="850.19" cy="1159.51" rx="744.38" ry="16.14"/>
  <g>
    <path class="cls-3" d="m159.51,623.51c-.7,121.08,20.84,276.98,207.68,323.59,211.13,52.66,394.23-53.34,552.68-30.46,158.45,22.87,169.8,80.49,374.57,68.9,204.77-11.59,325.04-211.06,340.69-338.07,22.03-178.75,22.03-518.16-284-557.2-189.96-24.23-423.02,128.4-560.17,187.93-137.14,59.52-324.55-11.26-435.89,31.83-122.08,47.25-194.86,191.15-195.57,313.48Z"/>
    <path class="cls-15" d="m283.02,912.62l-.1-4.48c10.59-.23,21.71-1.17,33.04-2.78l.63,4.44c-11.51,1.64-22.81,2.6-33.58,2.83Zm-22.52-.57c-11.4-.84-22.64-2.56-33.42-5.12l1.04-4.36c10.54,2.51,21.55,4.19,32.71,5.02l-.33,4.47Zm78.21-6.18l-.92-4.39c10.29-2.16,21.16-4.9,32.28-8.15l1.26,4.3c-11.24,3.28-22.21,6.05-32.62,8.24Zm-133.25-5.38c-10.45-3.75-20.81-8.47-30.78-14l2.17-3.92c9.77,5.42,19.9,10.03,30.13,13.71l-1.52,4.22Zm187.26-9.58l-1.43-4.25c9.91-3.32,20.47-7.15,31.39-11.38l1.62,4.18c-10.99,4.25-21.61,8.1-31.58,11.45Zm-237.18-16.28c-9.33-6.29-18.43-13.05-27.02-20.1l2.84-3.47c8.49,6.96,17.47,13.64,26.69,19.85l-2.5,3.72Zm289.55-3.49l-1.71-4.14c9.6-3.96,19.67-8.26,30.76-13.15l1.81,4.1c-11.12,4.9-21.22,9.21-30.85,13.19Zm51.27-22.31l-1.85-4.08c8.76-3.96,18.15-8.26,30.45-13.94l1.88,4.07c-12.31,5.69-21.71,9.99-30.48,13.96Zm-384.74-9.09c-8.2-7.65-16.1-15.78-23.48-24.16l3.36-2.96c7.28,8.27,15.08,16.29,23.18,23.84l-3.06,3.28Zm435.5-14.25l-1.88-4.07c10.04-4.65,20.19-9.34,30.44-14.03l1.86,4.08c-10.24,4.69-20.38,9.37-30.42,14.02Zm50.75-23.25l-1.84-4.09c10.99-4.95,21.03-9.38,30.68-13.55l1.78,4.11c-9.63,4.16-19.64,8.59-30.62,13.52Zm-524.02-4c-6.82-8.85-13.29-18.16-19.22-27.67l3.8-2.37c5.86,9.39,12.24,18.57,18.97,27.31l-3.55,2.74Zm575.16-18.26l-1.73-4.13c10.66-4.45,21.13-8.68,31.11-12.57l1.63,4.17c-9.94,3.88-20.38,8.1-31.01,12.53Zm51.85-20.44l-1.55-4.21c10.71-3.95,21.37-7.69,31.67-11.12l1.42,4.25c-10.26,3.41-20.87,7.14-31.53,11.07Zm-657.5-8.4c-5.28-9.82-10.15-20.05-14.5-30.39l4.13-1.74c4.29,10.22,9.1,20.31,14.31,30.01l-3.95,2.12Zm710.25-9.45l-1.31-4.29c10.87-3.32,21.73-6.42,32.29-9.19l1.14,4.33c-10.51,2.76-21.31,5.83-32.12,9.14Zm626.75-9.68c-5.57,0-11.46-.07-17.53-.22l.11-4.48c6.03.15,11.9.22,17.43.22h.12c5.43,0,10.76-.07,15.82-.21l.12,4.48c-5.1.14-10.46.21-15.94.21h-.12Zm-39.89-1.04c-10.06-.47-21.01-1.12-33.47-1.98l.31-4.47c12.43.85,23.35,1.5,33.37,1.97l-.21,4.48Zm78.35-.31l-.34-4.47c11.7-.89,22.5-2.21,33.02-4.03l.76,4.41c-10.66,1.85-21.6,3.18-33.45,4.08Zm-134.11-3.3c-10.75-.82-21.86-1.71-33.39-2.65l.36-4.47c11.52.93,22.63,1.82,33.37,2.64l-.34,4.47Zm-477.38-.17l-1.01-4.37c11-2.55,22.07-4.84,32.89-6.81l.8,4.41c-10.75,1.96-21.74,4.23-32.68,6.76Zm421.74-4.28c-10.77-.87-21.88-1.75-33.37-2.62l.34-4.47c11.49.87,22.62,1.76,33.39,2.62l-.36,4.47Zm245.19-1.01l-1.1-4.34c10.77-2.73,21.4-6.15,31.59-10.15l1.64,4.17c-10.36,4.07-21.17,7.54-32.12,10.32Zm-300.81-3.26c-11.55-.83-22.47-1.56-33.39-2.25l.28-4.47c10.94.69,21.87,1.42,33.43,2.25l-.32,4.47Zm-311.49-1.84l-.65-4.43c11.13-1.64,22.35-2.99,33.35-4.01l.41,4.46c-10.92,1.01-22.06,2.36-33.11,3.98Zm255.83-1.74c-11.19-.63-22.43-1.2-33.42-1.7l.2-4.48c11,.5,22.26,1.08,33.47,1.71l-.25,4.47Zm-55.71-2.64c-11.08-.42-22.33-.79-33.44-1.09l.12-4.48c11.13.3,22.4.67,33.49,1.09l-.17,4.48Zm-144.85-1.26l-.25-4.47c10.77-.6,21.64-.9,32.32-.9h1.27v4.48h-1.27c-10.6,0-21.39.3-32.07.89Zm89.1-.35c-11.1-.21-22.35-.37-33.46-.45l.04-4.48c11.12.09,22.39.24,33.51.45l-.09,4.48Zm520.63-8.34l-1.98-4.02c4.43-2.18,8.91-4.53,13.32-6.99,5.27-2.95,10.51-6.1,15.57-9.37l2.43,3.77c-5.14,3.32-10.47,6.52-15.82,9.52-4.47,2.5-9.03,4.89-13.52,7.1Zm-1506.15-2.74c-3.66-10.51-6.88-21.38-9.59-32.28l4.35-1.08c2.67,10.77,5.86,21.5,9.47,31.89l-4.23,1.47Zm1553.9-26.82l-2.72-3.56c8.75-6.68,17.22-13.97,25.18-21.67l3.12,3.22c-8.08,7.82-16.68,15.22-25.57,22.01ZM6.47,645.55c-2.03-10.95-3.6-22.17-4.67-33.35l4.46-.43c1.06,11.05,2.61,22.14,4.62,32.96l-4.41.82Zm1609.36-10.84l-3.35-2.97c7.27-8.2,14.21-16.96,20.63-26.04l3.66,2.59c-6.51,9.22-13.56,18.11-20.93,26.43ZM.29,589.79c-.19-5.03-.29-10.12-.29-15.15,0-6.14.14-12.37.43-18.52l4.48.21c-.28,6.08-.43,12.24-.43,18.31,0,4.97.1,10.01.29,14.98l-4.48.17Zm1648.77-.33l-3.83-2.32c5.66-9.36,10.95-19.21,15.72-29.28l4.05,1.92c-4.83,10.2-10.19,20.19-15.93,29.68Zm24.88-50.29l-4.17-1.65c4.03-10.18,7.66-20.76,10.79-31.46l4.3,1.26c-3.16,10.83-6.84,21.55-10.92,31.85ZM6.56,534.19l-4.46-.46c1.14-11.12,2.77-22.33,4.84-33.32l4.4.83c-2.04,10.87-3.65,21.95-4.78,32.95Zm1683.95-48.61l-4.37-1c2.44-10.7,4.45-21.71,5.98-32.73l4.44.62c-1.54,11.14-3.58,22.28-6.05,33.11Zm-1674.46-6.03l-4.35-1.07c2.68-10.88,5.86-21.76,9.43-32.32l4.25,1.44c-3.54,10.45-6.67,21.2-9.33,31.96Zm1682.97-49.4l-4.47-.37c.89-10.89,1.34-22,1.34-33.01v-.27h4.48v.27c0,11.13-.46,22.36-1.36,33.37Zm-1665.93-3.37l-4.16-1.68c4.2-10.42,8.9-20.73,13.95-30.65l3.99,2.03c-4.99,9.8-9.63,20-13.79,30.29Zm24.44-49.75l-3.86-2.27c5.7-9.7,11.88-19.2,18.37-28.23l3.64,2.62c-6.41,8.92-12.52,18.3-18.15,27.89Zm1637.74-2.7c-.6-11.02-1.67-22.17-3.16-33.14l4.44-.6c1.51,11.09,2.58,22.36,3.19,33.5l-4.47.24ZM89.2,331.55l-3.47-2.84c6.43-7.84,13.26-15.46,20.29-22.64.77-.79,1.54-1.57,2.32-2.35l3.18,3.16c-.77.77-1.53,1.54-2.29,2.32-6.94,7.08-13.68,14.6-20.03,22.34Zm1599.34-12.28c-2.08-10.88-4.63-21.79-7.58-32.42l4.32-1.2c2.98,10.75,5.55,21.77,7.66,32.77l-4.4.84Zm-1560.92-27.66l-2.99-3.34c8.48-7.59,17.27-14.74,26.13-21.26l2.66,3.61c-8.74,6.44-17.42,13.5-25.79,20.99Zm604.35-17.26c-6.33,0-12.83-.16-19.34-.47l.21-4.48c11.32.54,22.55.6,33.29.2l.17,4.48c-4.7.18-9.52.27-14.34.27Zm36.75-1.84l-.46-4.46c11.36-1.18,22.4-2.94,32.8-5.24l.97,4.38c-10.57,2.34-21.77,4.13-33.3,5.33Zm-78.46-.27c-10.87-1.07-22.09-2.57-33.34-4.46l.74-4.42c11.15,1.87,22.27,3.36,33.04,4.42l-.44,4.46Zm984.2-6.62c-3.54-10.51-7.55-20.96-11.92-31.08l4.11-1.78c4.42,10.23,8.48,20.8,12.06,31.43l-4.25,1.43Zm-1039.57-2c-10.7-2.24-21.7-4.88-32.69-7.82l1.16-4.33c10.91,2.92,21.82,5.53,32.45,7.76l-.92,4.39Zm188.89-2.3l-1.37-4.27c19.98-6.44,30.01-13,30.11-13.06l.72-.53,2.65,3.61-.81.59c-.51.34-10.66,7.01-31.3,13.65Zm-652.08-3.23l-2.4-3.78c9.52-6.05,19.4-11.62,29.37-16.53l1.98,4.02c-9.83,4.85-19.57,10.33-28.95,16.3Zm408.96-8.25c-11.89-3.29-22.46-6.15-32.31-8.74l1.14-4.33c9.86,2.6,20.45,5.46,32.36,8.75l-1.19,4.32Zm-53.92-14.3c-11.51-2.88-22.15-5.42-32.53-7.75l.98-4.37c10.42,2.34,21.1,4.88,32.64,7.77l-1.09,4.35Zm347.15-1.65l-2.64-3.62c9.18-6.71,18.2-13.28,27.08-19.72l2.63,3.63c-8.87,6.43-17.89,13-27.07,19.71Zm-653.03-1.16l-1.68-4.15c10.33-4.18,21.06-7.85,31.9-10.91l1.22,4.31c-10.68,3.02-21.25,6.64-31.43,10.75Zm251.55-9.6c-11.31-2.29-22.37-4.31-32.86-6.01l.72-4.42c10.56,1.71,21.67,3.74,33.04,6.04l-.89,4.39Zm-198.6-6.42l-.92-4.39c10.76-2.24,21.96-4.01,33.28-5.24l.49,4.45c-11.18,1.22-22.23,2.96-32.85,5.18Zm1379.34-2.28c-4.97-9.92-10.42-19.7-16.18-29.07l3.82-2.35c5.83,9.48,11.34,19.38,16.37,29.41l-4.01,2.01Zm-1235.64-.53c-11.35-1.47-22.52-2.6-33.2-3.37l.32-4.47c10.76.77,22.02,1.91,33.45,3.39l-.57,4.44Zm-88.72-4.12l-.23-4.48c10.86-.55,22.16-.67,33.66-.36l-.12,4.48c-11.39-.31-22.57-.19-33.32.35Zm590.26-8.67l-2.62-3.64c9.49-6.84,18.66-13.4,27.24-19.5l2.6,3.65c-8.58,6.1-17.74,12.65-27.22,19.48Zm45.44-32.36l-2.58-3.67c9.52-6.69,18.77-13.13,27.51-19.13l2.54,3.69c-8.72,6-17.97,12.43-27.47,19.11Zm660.32-1.94c-6.35-9.08-13.16-17.95-20.25-26.37l3.43-2.89c7.18,8.52,14.07,17.5,20.5,26.69l-3.67,2.57Zm-614.42-29.73l-2.51-3.71c9.6-6.49,18.99-12.73,27.92-18.55l2.45,3.75c-8.9,5.81-18.28,12.04-27.86,18.51Zm579.38-13.16c-7.62-8.01-15.7-15.76-24.01-23.02l2.95-3.37c8.41,7.36,16.59,15.2,24.31,23.31l-3.25,3.09Zm-532.78-17.43l-2.4-3.78c9.77-6.2,19.36-12.14,28.51-17.65l2.31,3.84c-9.12,5.49-18.69,11.41-28.43,17.6Zm491.63-19.68c-8.73-6.73-17.9-13.16-27.25-19.09l2.4-3.78c9.47,6.01,18.75,12.51,27.58,19.33l-2.74,3.55Zm-444.01-9.23l-2.24-3.88c10.04-5.78,19.92-11.25,29.36-16.25l2.1,3.96c-9.39,4.98-19.23,10.42-29.22,16.18Zm397.68-21.2c-10-5.59-19.95-10.78-29.57-15.42l1.94-4.04c9.7,4.67,19.73,9.9,29.81,15.54l-2.19,3.91Zm-348.65-5.12l-1.98-4.02c10.38-5.12,20.64-9.86,30.5-14.09l1.77,4.12c-9.78,4.2-19.97,8.9-30.28,13.99Zm298.84-19.46c-10.49-4.44-20.97-8.38-31.16-11.7l1.39-4.26c10.31,3.36,20.91,7.35,31.52,11.84l-1.75,4.13Zm-247.97-2.86l-1.59-4.19c10.8-4.1,21.52-7.72,31.86-10.77l1.27,4.3c-10.24,3.02-20.85,6.6-31.54,10.66Zm195.52-15.04c-10.88-2.78-21.85-4.98-32.58-6.51l.64-4.44c10.9,1.56,22.02,3.78,33.06,6.61l-1.11,4.34Zm-142.53-1.26l-1.01-4.37c11.14-2.57,22.3-4.57,33.15-5.93l.56,4.45c-10.7,1.35-21.71,3.31-32.7,5.85Zm87.92-7.56c-10.97-.72-22.13-.8-33.17-.24l-.23-4.48c11.22-.57,22.55-.48,33.69.25l-.29,4.47Z"/>
    <path class="cls-15" d="m1163.27,743.98h451.31s-17.81-71.78-58.52-84.23c-40.71-12.45-83.96,18.08-83.96,18.08,0,0-22.9-72.73-91.6-75.8-68.7-3.07-73.79,75.8-73.79,75.8,0,0-33.08-40.71-71.24-15.27-38.16,25.44-45.8,45.8-45.8,45.8,0,0-40.98-12.4-63.97,2.29-22.99,14.69-22.53,33.33-22.53,33.33h60.1Z"/>
    <path class="cls-15" d="m1441.75,329.02h249.81s-9.86-39.73-32.39-46.62c-22.53-6.89-46.48,10.01-46.48,10.01,0,0-12.68-40.26-50.7-41.96-38.03-1.7-40.84,41.96-40.84,41.96,0,0-18.31-22.53-39.43-8.45-21.13,14.08-25.35,25.35-25.35,25.35,0,0-22.68-6.86-35.41,1.27-12.73,8.13-12.47,18.45-12.47,18.45h33.27Z"/>
    <path class="cls-15" d="m589.68,211h249.81s-9.86-39.73-32.39-46.62c-22.53-6.89-46.48,10.01-46.48,10.01,0,0-12.68-40.26-50.7-41.96-38.03-1.7-40.84,41.96-40.84,41.96,0,0-18.31-22.53-39.43-8.45-21.13,14.08-25.35,25.35-25.35,25.35,0,0-22.68-6.86-35.41,1.27-12.73,8.13-12.47,18.45-12.47,18.45h33.27Z"/>
    <path class="cls-15" d="m185.73,457.11h187.96s-7.42-29.89-24.37-35.08-34.97,7.53-34.97,7.53c0,0-9.54-30.29-38.15-31.57-28.61-1.28-30.73,31.57-30.73,31.57,0,0-13.78-16.95-29.67-6.36-15.9,10.6-19.07,19.07-19.07,19.07,0,0-17.07-5.16-26.64.96-9.58,6.12-9.38,13.88-9.38,13.88h25.03Z"/>
    <path class="cls-1" d="m651.52,274.87c-13.75,2.7-20.64,24.84-20.64,24.84,0,0-16.93-15.86-30.22-11.42-17.04,5.69-19.4,28.04-7.39,43.46,12.01,15.42,52.17,23.11,52.17,23.11,0,0,31.13-26.51,33.97-45.85,2.83-19.34-10.25-37.61-27.88-34.15Z"/>
    <path class="cls-21" d="m141.96,618.35c-7,2.72-8.55,15.06-8.55,15.06,0,0-10.43-6.77-17.03-3.18-8.46,4.61-7.6,16.63.19,23.63,7.79,7.01,29.71,7.28,29.71,7.28,0,0,13.93-16.93,13.6-27.4-.33-10.47-8.96-18.88-17.93-15.39Z"/>
    <path class="cls-19" d="m286.99,244.09c-12.31,1.79-19.39,21.12-19.39,21.12,0,0-14.31-14.8-26.29-11.45-15.36,4.3-18.43,24.01-8.46,38.21,9.97,14.2,45.24,22.78,45.24,22.78,0,0,28.77-22.14,32.12-39.16,3.36-17.02-7.44-33.79-23.22-31.5Z"/>
    <path class="cls-20" d="m1456.44,125.22c-7.34-1.6-15.45,7.83-15.45,7.83,0,0-4.95-11.41-12.44-12.05-9.6-.83-15.52,9.66-12.9,19.81,2.62,10.14,20.75,22.48,20.75,22.48,0,0,20.97-6.41,26.48-15.32,5.51-8.91,2.97-20.69-6.44-22.74Z"/>
    <path class="cls-22" d="m1421.55,389.26c-13.11-4.5-29.99,11.05-29.99,11.05,0,0-6.64-21.97-20.22-24.75-17.42-3.57-30.51,14.4-27.86,33.55,2.64,19.15,33.23,45.64,33.23,45.64,0,0,39.8-7.28,51.8-22.44,12.01-15.15,9.86-37.28-6.96-43.06Z"/>
  </g>
  <g>
    <path class="cls-11" d="m887.04,331.4h61.24v442.78h-96.66v-407.36c0-19.55,15.87-35.42,35.42-35.42Z"/>
    <g>
      <path class="cls-18" d="m772.76,590.93s-36.86-15.06-34.25-20.05c2.61-4.99,23.62,5,23.62,5,0,0-18.22-11.86-15.55-16.35s21.46,10.23,21.46,10.23c0,0-11.68-13.81-8.08-18.92s16.79,15.79,16.79,15.79c0,0-8.32-16.87-4.15-19.93s15.46,31.56,15.46,31.56l-15.3,12.68Z"/>
      <path class="cls-11" d="m876.85,692.26l-17.28,13.59c-6.05,4.75-14.77,3.87-19.74-2l-79.26-93.54c-5.24-6.18-4.3-15.47,2.07-20.48l24.38-19.16c6.37-5.01,15.62-3.72,20.39,2.82l72.17,99.11c4.53,6.22,3.32,14.9-2.72,19.65Z"/>
      <path class="cls-7" d="m769.25,608.29s9.33-3.41,18.32-10.78,12.66-13.61,12.66-13.61c0,0-7.03,6.87-14.18,12.74s-16.8,11.66-16.8,11.66Z"/>
      <path class="cls-7" d="m803.77,624.5s8.5-4.07,14.4-9.38,7.64-9.99,7.64-9.99c0,0-3.17,4.14-9.42,8.54s-12.62,10.82-12.62,10.82Z"/>
      <path class="cls-7" d="m810.11,660.82s4.54-4.12,9.45-7.68,16.37-9.88,17.55-10.94-6.22,5.25-10.01,8.87-16.99,9.76-16.99,9.76Z"/>
      <path class="cls-7" d="m786.3,628.9s4.98-3.06,8.71-6.37,9.76-9.24,9.76-9.24c0,0-6.7,4.49-9.76,6.81s-8.71,8.81-8.71,8.81Z"/>
      <path class="cls-7" d="m848.89,644.84c-.62.69-7.03,10.39-7.03,10.39,0,0,9.78-9.52,10.21-11.7s-3.17,1.32-3.17,1.32Z"/>
    </g>
    <g>
      <path class="cls-18" d="m837.12,562.08s-27.36-28.92-22.93-32.39c4.43-3.47,19.46,14.29,19.46,14.29,0,0-11.71-18.32-7.42-21.31s15.33,18.17,15.33,18.17c0,0-4.95-17.4.44-20.57,5.39-3.18,8.79,21.31,8.79,21.31,0,0-.63-18.8,4.43-19.87s1.07,35.12,1.07,35.12l-19.17,5.24Z"/>
      <path class="cls-7" d="m890.15,697.31l-21.35,5.25c-7.47,1.84-15.05-2.56-17.16-9.96l-33.63-117.9c-2.22-7.79,2.47-15.87,10.33-17.8l30.11-7.4c7.87-1.93,15.77,3.05,17.41,10.98l24.87,120.05c1.56,7.53-3.12,14.95-10.58,16.78Z"/>
      <path class="cls-16" d="m826.76,576.44s9.9.74,21.14-2.27,17.14-7.18,17.14-7.18c0,0-9.23,3.36-18.17,5.76-8.94,2.4-20.11,3.69-20.11,3.69Z"/>
      <path class="cls-16" d="m851.52,605.45s9.42-.2,16.99-2.6c7.57-2.4,11.08-5.95,11.08-5.95,0,0-4.6,2.47-12.11,3.89s-15.96,4.66-15.96,4.66Z"/>
      <path class="cls-16" d="m842.32,641.15s5.84-1.88,11.78-3.1,18.98-2.25,20.5-2.73-7.83,2.22-12.78,3.95-19.5,1.88-19.5,1.88Z"/>
      <path class="cls-16" d="m833.79,602.26s5.8-.74,10.56-2.22c4.76-1.48,12.7-4.39,12.7-4.39,0,0-7.95,1.33-11.7,2.18s-11.57,4.43-11.57,4.43Z"/>
      <path class="cls-16" d="m884.24,642.59c-.85.37-10.69,6.56-10.69,6.56,0,0,12.83-4.64,14.13-6.45,1.29-1.81-3.43-.11-3.43-.11Z"/>
    </g>
    <g>
      <g>
        <path class="cls-18" d="m1174.33,582.05s-49.51-119.2-38.45-128.97,44.51,87.54,44.51,87.54c0,0-24.71-107.21-8.15-111.99,16.55-4.78,25.5,113.07,25.5,113.07,0,0,10.36-110.84,21.93-110.13,11.57.72-6.02,115.76-6.02,115.76,0,0,25.55-93.64,34.66-90.75,9.11,2.89-30.23,131.67-30.23,131.67l-43.75-6.2Z"/>
        <path class="cls-8" d="m1197.29,887.63l-36.95-2.29c-23.12-1.43-41.29-20.35-41.79-43.51l-4.89-227.22c-.56-26.07,21.28-47.04,47.3-45.43l74.78,4.64c26.02,1.61,45.1,25.13,41.33,50.93l-32.93,224.87c-3.36,22.92-23.72,39.45-46.84,38.01Z"/>
        <path class="cls-6" d="m1136.08,614.51c8.92-.25,17.61.2,26.28.72,8.65.58,17.25,1.33,25.82,2.22,17.01,1.81,33.92,2.92,51.59,4.65-8.39,3.18-17.21,4.59-26.03,5.41-8.83.7-17.75.61-26.56-.33-8.73-.92-17.41-2.35-25.96-4.37-8.54-2.08-17.01-4.55-25.13-8.3Z"/>
        <path class="cls-6" d="m1176.83,672.78c6.83-.35,13.36-.03,19.85.38,6.47.45,12.86,1.05,19.2,1.67,6.34.62,12.62,1.25,18.97,1.74,6.37.47,12.7.99,19.49,1.03-5.72,3.92-12.55,5.63-19.21,6.66-6.72.96-13.53.97-20.2.31-6.67-.66-13.23-1.96-19.62-3.86-6.38-1.93-12.64-4.34-18.48-7.92Z"/>
        <path class="cls-6" d="m1140.36,699.45c3.89-1.3,7.56-1.61,11.15-1.73,3.58-.07,7.07.17,10.51.65,3.44.49,6.82,1.22,10.19,2.19,3.39,1,6.71,2.21,10.36,4.04-3.45,2.24-7.25,3.15-10.94,3.63-3.71.44-7.39.35-10.99-.18-3.6-.52-7.11-1.44-10.52-2.79-3.4-1.39-6.69-3.14-9.77-5.81Z"/>
      </g>
      <g>
        <path class="cls-5" d="m767.45,686.6c0,38.23-34.49,69.23-77.04,69.23s-77.04-30.99-77.04-69.23,34.49-61.32,77.04-61.32,77.04,23.08,77.04,61.32Z"/>
        <path class="cls-18" d="m666.75,620.6s-21.52,12.16-30.88,15.91c-9.36,3.74-14.97,3.74-14.97,3.74,0,0,2.81,3.74,26.2.94,23.39-2.81,33.68-8.42,33.68-8.42l-7.49,19.65,17.11-16.84,26.87,14.97-11.23-15.91h43.98s-13.1,0-25.26-8.42c-12.16-8.42-30.88-7.49-30.88-7.49l15.91-24.33-14.97-5.36-7.49,30.62s-7.49-3.74-20.58.94Z"/>
      </g>
      <g>
        <path class="cls-12" d="m641.62,870.35l-82.82,7.52c-24.21,2.2-45.46-15.96-47-40.17l-13.94-219.45c-1.48-23.3,15.9-43.54,39.21-45.65l70.97-6.44c23.3-2.11,44.05,14.67,46.79,37.85l25.79,218.37c2.84,24.08-14.79,45.77-39,47.97Z"/>
        <rect class="cls-2" x="538.02" y="533.37" width="65.82" height="36.08" transform="translate(-47.5 53.86) rotate(-5.19)"/>
      </g>
      <g>
        <path class="cls-4" d="m1077.35,787.87s-33.5-87.09-29.03-116.12c4.47-29.03-3.05-71.46-.41-96.02,2.64-24.56,9.34-33.5,9.34-55.83s6.7-58.06,20.1-51.36c13.4,6.7,4.47,40.2,20.1,60.29,15.63,20.1,31.26,24.56,35.73,49.13,4.47,24.56-1.8,34.69,10.27,60.89,12.06,26.2,34.39,33.71,25.46,65.68-8.93,31.98-35.73,83.34-35.73,83.34h-55.83Z"/>
        <path class="cls-18" d="m1043.85,812.43s-73.69-89.32-71.46-133.98c2.23-44.66,6.7-55.83,2.23-80.39-4.47-24.56-17.86-46.89,2.23-60.29,20.1-13.4,37.69,8.93,43.41,17.86,5.72,8.93,7.95-13.4,23.58,11.17,15.63,24.56,6.7,40.2,24.56,58.06,17.86,17.86,32.79,20.1,35.37,51.36,2.59,31.26,6.52,35.4,10.46,82.53,3.94,47.13-16.81,93.89-16.81,93.89l-53.59-40.2Z"/>
      </g>
      <g>
        <path class="cls-18" d="m1276,649.13s-29.56-125.64-17.07-133.49c12.49-7.85,29.75,93.59,29.75,93.59,0,0-7.02-109.8,10.09-111.83,17.11-2.04,6.86,115.7,6.86,115.7,0,0,28.17-107.7,39.47-105.12,11.3,2.58-24.68,113.26-24.68,113.26,0,0,40.37-88.27,48.9-83.95,8.52,4.32-51.15,125.04-51.15,125.04l-42.16-13.2Z"/>
        <path class="cls-12" d="m1249.19,954.4l-36.09-8.24c-22.58-5.16-37.45-26.76-34.19-49.7l31.96-225.01c3.67-25.81,28.62-42.98,54.03-37.17l73.04,16.68c25.42,5.81,40.44,32.1,32.54,56.94l-68.91,216.57c-7.02,22.08-29.79,35.09-52.38,29.93Z"/>
        <path class="cls-8" d="m1233,674.98c8.84,1.2,17.34,3.05,25.81,4.97,8.44,1.98,16.8,4.11,25.12,6.37,16.49,4.54,33,8.38,50.16,12.94-8.79,1.78-17.73,1.74-26.56,1.12-8.83-.74-17.62-2.27-26.16-4.63-8.47-2.32-16.8-5.14-24.91-8.51-8.09-3.43-16.05-7.25-23.46-12.26Z"/>
        <path class="cls-8" d="m1263.78,739.08c6.79.76,13.19,2.13,19.53,3.58,6.32,1.49,12.52,3.12,18.68,4.75,6.16,1.63,12.25,3.28,18.44,4.79,6.2,1.5,12.37,3.04,19.06,4.17-6.28,2.94-13.3,3.53-20.04,3.46-6.79-.14-13.51-1.23-19.98-2.97-6.48-1.73-12.74-4.08-18.73-6.98-5.98-2.93-11.77-6.33-16.95-10.81Z"/>
        <path class="cls-8" d="m1223.47,759.49c4.05-.65,7.72-.36,11.28.1,3.55.51,6.95,1.31,10.27,2.34,3.32,1.04,6.53,2.3,9.7,3.81,3.18,1.54,6.26,3.27,9.57,5.66-3.77,1.66-7.66,1.94-11.38,1.81-3.73-.17-7.35-.85-10.81-1.95-3.46-1.09-6.79-2.57-9.93-4.46-3.13-1.92-6.1-4.19-8.7-7.32Z"/>
      </g>
      <g>
        <path class="cls-5" d="m937.62,714.01c0,38.23-34.49,69.23-77.04,69.23s-77.04-30.99-77.04-69.23,34.49-61.32,77.04-61.32,77.04,23.08,77.04,61.32Z"/>
        <path class="cls-18" d="m836.92,648.02s-21.52,12.16-30.88,15.91c-9.36,3.74-14.97,3.74-14.97,3.74,0,0,2.81,3.74,26.2.94,23.39-2.81,33.68-8.42,33.68-8.42l-7.49,19.65,17.11-16.84,26.87,14.97-11.23-15.91h43.98s-13.1,0-25.26-8.42c-12.16-8.42-30.88-7.49-30.88-7.49l15.91-24.33-14.97-5.36-7.49,30.62s-7.49-3.74-20.58.94Z"/>
      </g>
      <g>
        <path class="cls-10" d="m827.25,694.31c10.44,36.78-14.28,76.01-55.21,87.63-40.93,11.62-82.58-8.78-93.01-45.56-10.44-36.78,16.44-68.4,57.37-80.02,40.93-11.62,80.42,1.17,90.85,37.95Z"/>
        <path class="cls-18" d="m712.36,658.32s-17.38,17.58-25.36,23.73c-7.98,6.15-13.38,7.69-13.38,7.69,0,0,3.72,2.83,25.46-6.25,21.74-9.09,30.1-17.3,30.1-17.3l-1.84,20.95,11.86-20.87,29.93,7.07-15.14-12.24,42.3-12.01s-12.6,3.58-26.6-1.2c-14-4.78-31.75,1.23-31.75,1.23l8.66-27.75-15.86-1.07,1.16,31.5s-8.22-1.56-19.55,6.52Z"/>
      </g>
      <g>
        <rect class="cls-18" x="507.94" y="629.8" width="28.79" height="245.61" transform="translate(-168.86 151.36) rotate(-14.22)"/>
        <rect class="cls-18" x="519.08" y="626.97" width="28.79" height="245.61" transform="translate(40.24 -27.06) rotate(3.02)"/>
        <rect class="cls-18" x="485.75" y="635.42" width="28.79" height="245.61" transform="translate(-291.58 313) rotate(-27.24)"/>
      </g>
      <g>
        <path class="cls-17" d="m500.41,935.84c-49.23-47.05-144.64-197.96-144.64-230.84s35.79-55.91,65.7-44.7c29.9,11.21,56.22,78.19,112.43,115.27,56.22,37.08,102.86,21.53,130.37,56.22,27.51,34.69,13.16,88.51-22.73,118.41-35.88,29.9-97.71,27.15-141.14-14.35Z"/>
        <path class="cls-18" d="m355.77,623.84s6.94,27.75,7.59,30.33c.65,2.58,9.97,11.6,9.97,11.6-8.15,8.43-10.8,14.66-13.83,21.04,0,0,6.44-7.47,11.61-10.05l5.16-2.58v9.04s4.52-11.62,7.74-14.2c3.23-2.58,12.26-2.58,14.2-2.58s-7.1-3.66-7.1-3.66l10.98-5.33s-4.52-.69-10.33.6c-5.81,1.29-12.28,4.66-12.28,4.66,0,0-9.66-5.3-11.6-8.53-1.94-3.23-3.23-28.57-3.23-28.57l-8.88-1.77Z"/>
      </g>
      <g>
        <polygon class="cls-11" points="1062.44 1155.89 393.68 1155.89 327.79 733.75 1128.32 733.75 1062.44 1155.89"/>
        <polygon class="cls-14" points="1300.49 1155.89 631.73 1155.89 565.84 733.75 1366.37 733.75 1300.49 1155.89"/>
        <g>
          <rect class="cls-11" x="738.98" y="831.13" width="49.22" height="227.39" rx="24.61" ry="24.61"/>
          <rect class="cls-11" x="873.99" y="831.13" width="49.22" height="227.39" rx="24.61" ry="24.61"/>
          <rect class="cls-11" x="1009" y="831.13" width="49.22" height="227.39" rx="24.61" ry="24.61"/>
          <rect class="cls-11" x="1144.02" y="831.13" width="49.22" height="227.39" rx="24.61" ry="24.61"/>
        </g>
        <g>
          <path class="cls-9" d="m448.5,1058.52h0c-13.59,0-26.29-11.02-28.37-24.61l-27.2-178.17c-2.08-13.59,7.26-24.61,20.85-24.61h0c13.59,0,26.29,11.02,28.37,24.61l27.2,178.17c2.08,13.59-7.26,24.61-20.85,24.61Z"/>
          <path class="cls-9" d="m531.46,1058.52h0c-13.59,0-26.29-11.02-28.37-24.61l-27.2-178.17c-2.08-13.59,7.26-24.61,20.85-24.61h0c13.59,0,26.29,11.02,28.37,24.61l27.2,178.17c2.08,13.59-7.26,24.61-20.85,24.61Z"/>
        </g>
        <path class="cls-14" d="m991.62,331.4h-105.64c24.61,0,44.56,19.95,44.56,44.56v393.43h95.15v-403.91c0-18.82-15.26-34.08-34.08-34.08Z"/>
      </g>
    </g>
  </g>
</svg>